<svg id="visual" viewBox="0 0 900 600" width="900" height="600" xmlns="http://www.w3.org/2000/svg" xmlns:xlink="http://www.w3.org/1999/xlink" version="1.1"><rect x="0" y="0" width="900" height="600" fill="#111111"></rect><path d="M0 170L21.5 172.8C43 175.7 86 181.3 128.8 168.7C171.7 156 214.3 125 257.2 109.8C300 94.7 343 95.3 385.8 104.7C428.7 114 471.3 132 514.2 153C557 174 600 198 642.8 189C685.7 180 728.3 138 771.2 120.2C814 102.3 857 108.7 878.5 111.8L900 115L900 0L878.5 0C857 0 814 0 771.2 0C728.3 0 685.7 0 642.8 0C600 0 557 0 514.2 0C471.3 0 428.7 0 385.8 0C343 0 300 0 257.2 0C214.3 0 171.7 0 128.8 0C86 0 43 0 21.5 0L0 0Z" fill="#00A2C7" stroke-linecap="round" stroke-linejoin="miter"></path></svg>